<svg width="364" height="369" viewBox="0 0 364 369" fill="none" xmlns="http://www.w3.org/2000/svg">
<path d="M70.5273 310.082C72.6484 305.898 74.3281 302.352 74.8613 298.559C75.7656 292.145 76.6523 285.719 77.916 279.252C79.1191 273.088 81.957 266.984 85.6523 261.426C88.3672 257.342 92.0137 253.828 95.2754 250.098C102.475 241.867 110.887 235.861 119.076 229.484C125.416 224.547 131.875 219.885 138.285 215.113C138.912 214.646 139.574 214.268 140.398 214.207C139.404 215.078 138.406 215.943 137.418 216.824C130.857 222.666 126.025 229.699 122.805 237.807C118.785 247.932 114.926 258.084 110.758 268.18C109.055 272.303 107.031 276.479 104.613 280.332C101.049 286.016 96.1914 290.141 90.8418 293.252C89.5547 294 88.2617 294.791 86.957 295.381C81.5215 297.842 77.4844 302.303 74.1523 307.826C73.5976 308.744 73.082 309.686 72.4941 310.586C70.9434 312.965 70.4687 315.078 70.7695 317.535C72.7461 333.572 76.4531 348.5 82.3379 362.08C83.4414 364.619 83.3906 364.703 80.0039 368.734C79.0625 366.492 78.1406 364.336 77.2461 362.158C70.9824 346.908 67.4453 330.055 65.9473 311.963C65.209 303.057 57.4277 296.834 48.8789 297.9C44.2617 298.486 39.9473 298.438 36.0391 296.768C31.1406 294.678 28.5937 290.264 26.3809 285.385C23.0592 278.064 19.7526 270.733 16.4609 263.391C13.2305 256.211 8.09961 251.531 0.380859 250.236C0.171874 250.201 0.03125 250.002 0 249.484C2.08203 249.629 4.21484 249.645 6.23828 249.938C15.9512 251.348 25.7168 252.645 35.2871 254.381C38.6465 254.988 41.6289 256.588 44.6094 258.027C47.2949 259.324 50.0547 260.637 52.2363 262.621C57.3359 267.26 59.5527 274.23 60.2441 282.291C60.5918 286.393 60.8652 290.541 61.3516 294.58C61.7539 297.9 63.1348 300.518 65.3945 302.863C65.5078 301.396 65.6465 300.324 65.6641 299.281C65.9512 282.385 67.6484 265.188 71.9394 247.414C72.5976 244.68 73.0898 241.945 73.9941 239.232C75.9824 233.256 72.8613 224.061 67.9394 222.514C59.7031 219.93 56.2617 213.068 56.0527 203.113C55.9082 196.328 55.6367 189.59 55.3906 182.844C55.0937 174.693 54.0234 167.051 49.0293 161.912C49.25 161.963 49.5215 161.947 49.6836 162.076C53.7187 165.27 57.8203 168.375 61.7422 171.713C64.8672 174.379 68.0762 177.018 70.7109 180.24C73.3769 183.502 75.8594 187.1 77.5664 191.205C80.0664 197.217 79.793 204.559 78.2305 212.344C77.2266 217.348 76.5586 222.305 75.8379 227.279C75.6909 228.443 75.8561 229.626 76.3164 230.705C77.293 227.877 78.291 225.041 79.2461 222.219C84.0449 208.057 89.957 194.107 97.3555 180.539C101.805 172.379 106.795 164.436 111.494 156.373C111.99 155.518 112.321 154.577 112.471 153.6C113.092 149.039 111.824 145.807 109.15 143.416C106.137 140.723 105.059 136.648 106.381 131.367C108.271 123.816 110.404 116.254 112.371 108.697C113.762 103.355 114.992 98.0254 114.01 93.2422C113.77 92.0703 113.359 91.002 113.033 89.8848L113.525 89.4941C115.572 93.1309 117.62 96.7663 119.668 100.4C122.198 104.87 124.008 109.71 125.031 114.742C126.33 121.041 124.695 127.633 121.805 134.459C119.852 139.078 117.525 143.621 115.406 148.211C114.924 149.214 114.67 150.311 114.662 151.424C115.895 149.834 117.201 148.299 118.35 146.646C124.83 137.447 131.711 128.602 139.148 120.238C147.178 111.207 155.523 102.523 164.625 95.1465C169.146 91.4824 171.9 80.0039 168.611 76.7266C165.539 73.6641 164.865 68.9609 167.424 63.1465C170.117 57.0215 172.922 50.9219 175.752 44.8301C178.553 38.8027 180.635 32.8848 179.441 27.2852C179.396 27.0742 179.463 26.7988 179.852 26.3203C181.148 30.1133 182.467 33.8926 183.734 37.707C185.371 42.627 186.822 47.6133 186.936 53.457C187.047 59.2637 185.041 64.7363 181.398 70.1621C178.912 73.873 176.381 77.5605 173.676 81.0996C171.678 83.7188 171.234 86.3145 170.527 89.4551C171.381 88.9434 171.973 88.6738 172.494 88.2637C185.744 77.6856 199.502 68.8418 213.58 60.9707C219.885 57.4453 224.23 51.6953 225.844 44.541C227.635 36.6016 231.795 30.4492 238.133 25.1152C243.531 20.5742 248.875 15.8594 253.969 10.8184C256.229 8.58008 257.789 5.34961 259.658 2.56445C259.949 2.12891 260.184 1.66016 260.721 1.25391C260.227 2.67774 259.768 4.10352 259.232 5.52149C255.533 15.3359 251.758 25.123 246.473 34.5938C242.648 41.4492 237.631 46.4414 231.287 49.6856C227.459 51.6387 223.516 53.2559 220.195 56.9668C219.963 57.2266 219.75 57.5078 219.146 58.2422C220.768 57.5332 221.936 57.0449 223.102 56.5078C236.457 50.3367 250.427 45.5949 264.779 42.3613C268.726 41.4819 272.383 39.6127 275.408 36.9297C277.051 35.4922 278.475 33.584 279.865 31.7793C282.25 28.6836 284.336 25.2754 286.924 22.4297C288.788 20.3963 291.005 18.718 293.469 17.4766C297.686 15.4141 301.971 13.8574 306.232 12.2285C311.877 10.0801 317.379 7.5 322.172 2.18359C322.527 1.79297 322.855 1.35547 323.207 0.955078C323.537 0.536866 323.967 0.208418 324.457 0C324.397 0.226328 324.307 0.443701 324.189 0.646485C316.945 9.88281 310.238 19.6016 302.066 28.002C297.035 33.1699 291.775 37.2656 285.734 38.127C282.805 38.5449 279.947 38.4805 277.018 38.8379C275.732 38.9941 274.348 39.6523 273.008 40.082C272.988 40.2773 272.967 40.4609 272.945 40.6504C274.117 40.5156 275.289 40.4316 276.49 40.2422C286.18 38.7012 295.574 38.3691 304.861 38.4844C310.826 38.5625 316.844 37.4492 323.111 33.3203C329.77 28.9355 335.338 29.9336 340.801 31.4824C344.219 32.459 347.729 33.2402 351.238 34.0098C354.914 34.8203 358.896 34.0098 363.1 32.2988C362.805 32.5697 362.491 32.8184 362.16 33.043C352.311 38.6348 342.445 43.9902 332.332 47.416C326.863 49.2695 322.426 48.5508 318.52 46.1602C317.543 45.5742 316.533 45.0039 315.729 44.207C312.781 41.2656 308.762 40.5938 304.328 40.6914C299.445 40.8047 294.574 40.8262 289.693 40.9082C289.168 40.9541 288.646 41.035 288.131 41.1504C288.047 41.4102 287.963 41.668 287.877 41.9316C289.506 42.1816 291.07 42.668 292.779 42.625C295.16 42.5645 297.662 42.0703 300.092 41.8281C306.914 41.1523 311.863 43.8516 315.736 48.4688C321.842 55.7441 326.027 64.7539 330.426 73.5703C330.567 73.89 330.578 74.2522 330.457 74.5801C329.748 73.7148 329.027 72.8613 328.33 71.9824C325.4 68.3008 320.887 67.2617 316.484 66.0488C312.463 64.9414 308.404 63.9141 304.334 62.9238C298.828 61.5703 295.686 57.5645 294.039 51.8203C291.947 44.5215 287.24 40.9356 279.373 42.1191C266.107 44.1152 252.719 47.4727 239.178 52.8184C238.182 53.209 237.188 53.7012 236.193 54.1445C236.156 54.3789 236.121 54.6133 236.084 54.8477C238.352 54.5156 240.604 54.4746 242.889 53.791C247.852 52.3105 252.85 50.6152 257.398 51.3516C259.662 51.7168 261.904 52.3516 263.775 53.4551C269.922 57.0762 275.008 62.0684 279.613 67.6504C281.807 70.3086 284.084 72.8789 286.324 75.4902L285.982 75.9473C285.201 75.3867 284.344 74.9043 283.627 74.252C280.793 71.6758 277.039 71 272.98 70.9141C267.621 70.7988 262.312 70.5059 256.906 70.5605C250.398 70.625 246.359 67.1172 243.568 61.8926C241.732 58.4805 238.803 56.75 235.287 55.9199C233.906 55.5957 232.047 55.877 230.451 56.5664C215.412 63.0469 200.818 71.6426 186.582 81.9297C184.549 83.3984 182.541 84.9297 180.582 86.5859C184.941 86.1953 188.762 83.1758 192.557 80.0469C197.652 75.8457 203.051 72.1895 208.441 71.9902C212.977 71.8203 217.553 72.3691 221.355 73.9609C228.258 76.8477 234.6 80.7422 241.172 84.2266C241.543 84.4113 241.828 84.7326 241.967 85.123C240.225 84.7422 238.533 84.2227 236.729 84.0098C232.404 83.502 227.795 85.4102 223.215 87.2617C217.705 89.4922 212.193 91.7266 206.688 94.0606C201.121 96.418 196.922 95.2832 193.389 92.3301C191.977 91.1582 190.771 89.5527 189.059 88.9395C183.326 86.8926 177.195 88.7109 170.914 94.1465C157.471 105.773 144.83 118.453 133.426 132.746C129.654 137.475 125.955 142.27 122.32 147.199C125.016 146.293 127.418 144.641 129.547 142.154C132.189 139.078 134.75 135.904 137.504 132.961C144.223 125.789 151.398 122.107 159.379 121.354C167.678 120.572 175.242 121.744 182.898 122.75C186.088 123.141 189.243 123.771 192.338 124.635C191.998 124.715 191.635 124.873 191.322 124.863C183.758 124.623 176.543 128.984 169.34 134.4C164.066 138.367 158.703 142.146 153.342 145.898C147.537 149.961 142.176 150.307 137.576 148.209C133.016 146.131 128.176 146.082 122.537 149.289C120.887 150.239 119.45 151.519 118.316 153.049C107.478 168.367 98.3512 184.828 91.0996 202.135C87.0508 211.787 83.8066 221.598 80.2148 231.338C79.9902 231.941 79.8848 232.561 79.6387 233.506C84.2012 229.111 87.3262 224.295 89.7676 218.889C92.0566 213.811 94.3594 208.68 97.2188 203.85C100.52 198.223 105 193.377 110.35 189.645C121.037 182.184 132.029 177.83 143.082 173.824C147.656 172.168 152.229 170.602 156.865 169.213C156.451 169.465 156.041 169.758 155.619 169.963C149.145 173.105 143.484 177.713 138.686 184.252C131.947 193.433 125.12 202.548 118.203 211.596C112.688 218.809 105.949 222.576 99.0176 223.326C91.4141 224.15 85.5195 229.082 80.0723 236.021C79.1289 237.221 78.2168 238.738 77.8457 240.098C71.582 263.105 69.0762 285.305 70.127 306.697C70.1758 307.689 70.3496 308.627 70.5273 310.082Z" fill="#050529"/>
</svg>
