<svg id="Layer_1" data-name="Layer 1" xmlns="http://www.w3.org/2000/svg" viewBox="0 0 570.25 727.7">
<defs>
<style>.cls-1{fill:#c9c9c9;}.cls-2{fill:#f1f1f1;}.cls-3{fill:#fff;}.cls-4{fill:none;}.cls-5{fill:#fe5536;}.cls-6{fill:#fc563c;}.cls-7{fill:#555;}.cls-8{fill:#2f6dd4;}.cls-9{fill:#ffcb08;}.cls-10{fill:#fc5238;}.cls-11{fill:#ddd;}</style>
</defs>
<title>astronaut</title>
<path class="cls-1" d="M177.62,507.58l240.07,85s29.54,18.82,41.81-15.83l85-240.06S561.6,312.13,524.48,299L277,211.32s-29.54-18.82-41.81,15.82L151.9,462.26S130.6,490.92,177.62,507.58Z" transform="translate(-13.97 -91)"/>
<path class="cls-2" d="M266.52,327.38S215.32,401.16,182,495.2l235.11,83.28S476.42,426.8,462,396.63C462,396.63,383.93,310.47,266.52,327.38Z" transform="translate(-13.97 -91)"/>
<path class="cls-3" d="M347.73,381.21c47,16.66,147.61,55.07,196.7-83.52S465.87,102.74,448.54,96.6s-139.78-30-187.12,103.63S305.65,366.31,347.73,381.21Z" transform="translate(-13.97 -91)"/>
<path class="cls-3" d="M260.54,336.4s-39.13-38.93-45.78-83.06L148,268.7s18.81,104.15,78.21,125.19S260.54,336.4,260.54,336.4Z" transform="translate(-13.97 -91)"/>
<path class="cls-3" d="M456.05,405.66s-34.13,49.18-9.85,82.85c12.22,12.69,37.54,35.58,43.05,51.46l68.32-12S540.2,435.46,456.05,405.66Z" transform="translate(-13.97 -91)"/>
<path class="cls-2" d="M92.18,591.51l80.18-69.08s40.22-19.18,61.31,7.79,31.4,52.9,15.36,66.72-87.76,74.75-87.76,74.75Z" transform="translate(-13.97 -91)"/><path class="cls-2" d="M291.83,617.66l-45.59,128.7s7.11,19.23,44.24,32.38,54.75,2.68,54.75,2.68l62.25-175.71s-27.64-32.07-50.79-37.49S291.83,617.66,291.83,617.66Z" transform="translate(-13.97 -91)"/>
<polygon class="cls-3" points="168.04 404.2 158.4 431.43 237.54 506.81 265.69 466.65 290.44 475.41 277.86 526.66 390.47 524.77 403.15 487.48 168.04 404.2"/><path class="cls-3" d="M344.44,809l-112-40c7.5-18.4,28.72-53.53,77.15-36.38C358.34,749.85,350.9,790.36,344.44,809Z" transform="translate(-13.97 -91)"/>
<path class="cls-4" d="M344.89,807.67" transform="translate(-13.97 -91)"/><path class="cls-5" d="M344.44,809a74.45,74.45,0,0,1-4.05,9.71L229,779.25A78.77,78.77,0,0,1,232.46,769Z" transform="translate(-13.97 -91)"/>
<path class="cls-3" d="M161.27,671.69l-41,36.81L20.94,593.77c12.53-9.82,40.46-25.5,71.24-2.26Z" transform="translate(-13.97 -91)"/><path class="cls-6" d="M120.24,708.5l-7.95,7.12L14,600a61.37,61.37,0,0,1,7-6.25Z" transform="translate(-13.97 -91)"/>
<path class="cls-7" d="M372.12,320.22c47,16.65,121.27,42.95,148.44-33.77S496.7,141.51,447.2,124s-133.7,0-163.5,84.14S372.12,320.22,372.12,320.22Z" transform="translate(-13.97 -91)"/><path class="cls-1" d="M214.76,253.34a36.41,36.41,0,0,0,11.09-15.58L239,200.64s5.26-14.85-4.63-18.35-15.89,5.51-17.64,10.46l-4.38,12.38L207,175.27s-3.47-16.81-13.09-12.22-7.5,9.79-6.66,14.12,3.8,19.71,3.8,19.71,1.08,2.64-.92,3.59-2.83-3.37-2.83-3.37l-4.7-24.54s-3.64-9.82-11.45-7.5a10,10,0,0,0-7.43,11.6c.56,2.09,5,26.06,5,26.06s.73,1-.7,1.65-2.2-3.15-2.2-3.15L161,180.41s-5.06-10.69-11.39-8.54-9.26,9-7.93,14,4.86,21.4,4.86,21.4.25,1.63-.6,2-2.82-4.08-2.82-4.08l-4.23-13.83s-5-8.4-11-5.79-6.52,6.7-6.21,10.84-1.89,41.8,19,60.34C147.05,263,148,268.7,148,268.7Z" transform="translate(-13.97 -91)"/>
<path class="cls-1" d="M489.25,540a126.69,126.69,0,0,0-9.3,19.58L466.8,596.67s-5.26,14.85,4.64,18.36,15.88-5.52,17.63-10.47l4.39-12.37,5.3,29.85s3.47,16.81,13.1,12.22,7.5-9.79,6.66-14.11-3.8-19.72-3.8-19.72-1.09-2.64.91-3.59,2.84,3.38,2.84,3.38l4.7,24.54s3.63,9.82,11.45,7.49A10,10,0,0,0,542,620.66c-.56-2.1-5-26.07-5-26.07s-.72-1,.7-1.65S540,596.1,540,596.1l4.87,20.81s5.07,10.68,11.4,8.54,9.25-9.05,7.93-14S559.29,590,559.29,590s-.25-1.63.61-2,2.82,4.08,2.82,4.08L567,605.89s5,8.4,11,5.79,6.52-6.7,6.21-10.84,1.88-41.8-19-60.34c-6.36-6.14-7.53-12.54-7.53-12.54Z" transform="translate(-13.97 -91)"/><rect class="cls-3" x="251.76" y="413.93" width="165.69" height="75.61" rx="7.09" transform="translate(156.07 -176.8) rotate(19.51)"/><circle class="cls-8" cx="285.31" cy="338.48" r="13.41"/>
<circle class="cls-9" cx="326.48" cy="353.06" r="13.41"/><circle class="cls-10" cx="366.5" cy="367.24" r="13.41"/><circle class="cls-11" cx="293.14" cy="428.48" r="31.39"/>
<circle class="cls-3" cx="293.14" cy="428.48" r="19.61"/>
</svg>