<svg width="368" height="390" viewBox="0 0 368 390" fill="none" xmlns="http://www.w3.org/2000/svg">
<path d="M230.506 126.428C235.673 122.867 242.642 123.114 247.214 127.412C257.618 137.188 263.74 146.095 269.317 159.538C271.735 165.365 269.498 172.011 264.303 175.591L189.657 227.039C183.291 231.427 174.573 229.823 170.185 223.457L152.218 197.389C147.831 191.023 149.434 182.305 155.801 177.917L230.506 126.428Z" fill="#C4C4C4"/>
<path d="M230.852 126.189C236.238 122.477 243.542 122.934 248.097 127.628C257.358 137.169 263.344 145.849 269.363 158.601C272.181 164.57 270.036 171.64 264.601 175.386L259.182 179.121C250.65 156.37 243.213 145.633 225.325 129.999L230.852 126.189Z" fill="#0058FF"/>
<mask id="mask0" mask-type="alpha" maskUnits="userSpaceOnUse" x="67" y="170" width="125" height="125">
<circle cx="129.545" cy="232.242" r="44.4133" transform="rotate(55.4243 129.545 232.242)" fill="#0058FF"/>
</mask>
<g mask="url(#mask0)">
<rect x="140.91" y="170.469" width="88.8265" height="44.4133" rx="10" transform="rotate(55.4243 140.91 170.469)" fill="#0058FF"/>
</g>
<rect x="129.901" y="41.1921" width="108.05" height="50.3792" rx="10" transform="rotate(55.4243 129.901 41.1921)" fill="#E2E2E2"/>
<rect x="130.108" y="42.6599" width="105.399" height="49.0535" rx="10" transform="rotate(55.4243 130.108 42.6599)" fill="#5D6165"/>
<rect x="129.769" y="44.5039" width="102.747" height="46.4019" rx="10" transform="rotate(55.4243 129.769 44.5039)" fill="#1F8BD4"/>
<mask id="mask1" mask-type="alpha" maskUnits="userSpaceOnUse" x="91" y="44" width="98" height="112">
<rect x="129.769" y="44.5039" width="102.747" height="46.4019" rx="10" transform="rotate(55.4243 129.769 44.5039)" fill="#1F8BD4"/>
</mask>
<g mask="url(#mask1)">
<line x1="134.339" y1="51.1359" x2="96.1332" y2="77.4687" stroke="#E2E2E2" stroke-width="0.2"/>
<line x1="139.23" y1="58.2313" x2="101.024" y2="84.5642" stroke="#E2E2E2" stroke-width="0.2"/>
<line x1="144.12" y1="65.3268" x2="105.914" y2="91.6596" stroke="#E2E2E2" stroke-width="0.2"/>
<line x1="149.011" y1="72.4222" x2="110.804" y2="98.7551" stroke="#E2E2E2" stroke-width="0.2"/>
<line x1="153.901" y1="79.5177" x2="115.695" y2="105.851" stroke="#E2E2E2" stroke-width="0.2"/>
<line x1="158.791" y1="86.6132" x2="120.585" y2="112.946" stroke="#E2E2E2" stroke-width="0.2"/>
<line x1="163.682" y1="93.7086" x2="125.475" y2="120.041" stroke="#E2E2E2" stroke-width="0.2"/>
<line x1="168.572" y1="100.804" x2="130.366" y2="127.137" stroke="#E2E2E2" stroke-width="0.2"/>
<line x1="173.463" y1="107.899" x2="135.256" y2="134.232" stroke="#E2E2E2" stroke-width="0.2"/>
<line x1="178.353" y1="114.995" x2="140.147" y2="141.328" stroke="#E2E2E2" stroke-width="0.2"/>
<line x1="183.243" y1="122.09" x2="145.037" y2="148.423" stroke="#E2E2E2" stroke-width="0.2"/>
<line x1="93.8279" y1="69.2752" x2="152.136" y2="153.875" stroke="#E2E2E2" stroke-width="0.2"/>
<line x1="99.286" y1="65.5134" x2="157.594" y2="150.113" stroke="#E2E2E2" stroke-width="0.2"/>
<line x1="104.744" y1="61.7516" x2="163.052" y2="146.351" stroke="#E2E2E2" stroke-width="0.2"/>
<line x1="110.202" y1="57.9898" x2="168.51" y2="142.589" stroke="#E2E2E2" stroke-width="0.2"/>
<line x1="115.66" y1="54.2279" x2="173.968" y2="138.828" stroke="#E2E2E2" stroke-width="0.2"/>
<line x1="121.118" y1="50.4661" x2="179.426" y2="135.066" stroke="#E2E2E2" stroke-width="0.2"/>
<line x1="126.576" y1="46.7042" x2="184.884" y2="131.304" stroke="#E2E2E2" stroke-width="0.2"/>
</g>
<mask id="mask2" mask-type="alpha" maskUnits="userSpaceOnUse" x="91" y="44" width="98" height="112">
<rect x="129.769" y="44.5039" width="102.747" height="46.4019" rx="10" transform="rotate(55.4243 129.769 44.5039)" fill="#1F8BD4"/>
</mask>
<g mask="url(#mask2)">
<g opacity="0.5">
<path d="M170.961 104.269L97.7693 79.8425L102.472 86.665L176.039 111.638L170.961 104.269Z" fill="white"/>
<path d="M182.81 121.462L113.005 101.948L149.871 155.436L188.077 129.103L182.81 121.462Z" fill="white"/>
</g>
</g>
<rect x="246.895" y="210.937" width="108.05" height="50.3792" rx="10" transform="rotate(55.4243 246.895 210.937)" fill="#E2E2E2"/>
<rect x="247.101" y="212.405" width="105.399" height="49.0534" rx="10" transform="rotate(55.4243 247.101 212.405)" fill="#5D6165"/>
<rect x="246.762" y="214.249" width="102.747" height="46.4019" rx="10" transform="rotate(55.4243 246.762 214.249)" fill="#1F8BD4"/>
<mask id="mask3" mask-type="alpha" maskUnits="userSpaceOnUse" x="212" y="218" width="90" height="104">
<rect x="246.762" y="214.249" width="102.747" height="46.4019" rx="10" transform="rotate(55.4243 246.762 214.249)" fill="#1F8BD4"/>
</mask>
<g mask="url(#mask3)">
<line x1="251.333" y1="220.881" x2="213.127" y2="247.214" stroke="#E2E2E2" stroke-width="0.2"/>
<line x1="256.223" y1="227.976" x2="218.017" y2="254.309" stroke="#E2E2E2" stroke-width="0.2"/>
<line x1="261.114" y1="235.072" x2="222.907" y2="261.405" stroke="#E2E2E2" stroke-width="0.2"/>
<line x1="266.004" y1="242.167" x2="227.798" y2="268.5" stroke="#E2E2E2" stroke-width="0.2"/>
<line x1="270.894" y1="249.263" x2="232.688" y2="275.596" stroke="#E2E2E2" stroke-width="0.2"/>
<line x1="275.785" y1="256.358" x2="237.579" y2="282.691" stroke="#E2E2E2" stroke-width="0.2"/>
<line x1="280.675" y1="263.454" x2="242.469" y2="289.786" stroke="#E2E2E2" stroke-width="0.2"/>
<line x1="285.566" y1="270.549" x2="247.359" y2="296.882" stroke="#E2E2E2" stroke-width="0.2"/>
<line x1="290.456" y1="277.644" x2="252.25" y2="303.977" stroke="#E2E2E2" stroke-width="0.2"/>
<line x1="295.346" y1="284.74" x2="257.14" y2="311.073" stroke="#E2E2E2" stroke-width="0.2"/>
<line x1="300.237" y1="291.835" x2="262.03" y2="318.168" stroke="#E2E2E2" stroke-width="0.2"/>
<line x1="210.821" y1="239.02" x2="269.13" y2="323.62" stroke="#E2E2E2" stroke-width="0.2"/>
<line x1="216.279" y1="235.258" x2="274.588" y2="319.858" stroke="#E2E2E2" stroke-width="0.2"/>
<line x1="221.737" y1="231.497" x2="280.046" y2="316.096" stroke="#E2E2E2" stroke-width="0.2"/>
<line x1="227.195" y1="227.735" x2="285.504" y2="312.334" stroke="#E2E2E2" stroke-width="0.2"/>
<line x1="232.653" y1="223.973" x2="290.962" y2="308.573" stroke="#E2E2E2" stroke-width="0.2"/>
<line x1="238.111" y1="220.211" x2="296.42" y2="304.811" stroke="#E2E2E2" stroke-width="0.2"/>
<line x1="243.569" y1="216.449" x2="301.878" y2="301.049" stroke="#E2E2E2" stroke-width="0.2"/>
</g>
<mask id="mask4" mask-type="alpha" maskUnits="userSpaceOnUse" x="212" y="218" width="90" height="104">
<rect x="246.762" y="214.249" width="102.747" height="46.4019" rx="10" transform="rotate(55.4243 246.762 214.249)" fill="#1F8BD4"/>
</mask>
<g mask="url(#mask4)">
<g opacity="0.5">
<path d="M287.954 274.014L214.763 249.588L219.465 256.41L293.033 281.383L287.954 274.014Z" fill="white"/>
<path d="M299.804 291.207L229.998 271.693L266.864 325.181L305.07 298.849L299.804 291.207Z" fill="white"/>
</g>
</g>
<rect x="172.662" y="142.948" width="19.2236" height="5.96596" transform="rotate(55.4243 172.662 142.948)" fill="#7F7F7F"/>
<rect x="217.428" y="207.899" width="19.2236" height="5.96596" transform="rotate(55.4243 217.428 207.899)" fill="#7F7F7F"/>
<path d="M94.0637 253.183L126.536 227.875L129.545 232.242L95.7053 255.565L94.0637 253.183Z" fill="#C4C4C4"/>
<path d="M97.3467 257.947L132.554 236.608L129.545 232.242L95.7051 255.565L97.3467 257.947Z" fill="#C4C4C4"/>
<circle cx="95.7053" cy="255.565" r="7.95461" transform="rotate(55.4243 95.7053 255.565)" fill="#0058FF"/>
<path fill-rule="evenodd" clip-rule="evenodd" d="M250.145 129.799L265.28 109.707L278.822 129.356L278.822 129.356L292.365 149.004L268.202 155.997C265.979 151.169 264.529 148.339 260.17 142.211L260.17 142.211C255.995 135.957 253.866 133.595 250.145 129.799Z" fill="#C4C4C4"/>
<path d="M204.673 161.139C206.543 159.851 209.059 159.974 210.73 161.512C217.523 167.768 221.102 172.971 224.534 181.543C225.378 183.653 224.598 186.051 222.727 187.34L214.593 192.946C211.981 194.746 208.392 193.678 207.016 190.819C203.903 184.352 200.747 179.771 195.836 174.587C193.652 172.283 193.928 168.545 196.542 166.743L204.673 161.139Z" fill="#828282"/>
<path d="M205.008 161.516C206.673 160.368 208.897 160.467 210.387 161.799C217.287 167.967 220.831 173.12 224.143 181.761C224.86 183.629 224.161 185.745 222.495 186.893L214.334 192.518C211.983 194.137 208.726 193.18 207.48 190.566C204.405 184.118 201.241 179.491 196.239 174.247C194.238 172.149 194.501 168.758 196.853 167.136L205.008 161.516Z" stroke="#565656"/>
</svg>
